<!DOCTYPE svg PUBLIC "-//W3C//DTD SVG 1.1//EN" "http://www.w3.org/Graphics/SVG/1.1/DTD/svg11.dtd">
<!-- Uploaded to: SVG Repo, www.svgrepo.com, Transformed by: SVG Repo Mixer Tools -->
<svg version="1.1" id="Layer_1" xmlns="http://www.w3.org/2000/svg" xmlns:xlink="http://www.w3.org/1999/xlink" viewBox="0 0 512 512" xml:space="preserve" width="800px" height="800px" fill="#000000">
<g id="SVGRepo_bgCarrier" stroke-width="0"/>
<g id="SVGRepo_tracerCarrier" stroke-linecap="round" stroke-linejoin="round"/>
<g id="SVGRepo_iconCarrier"> <path style="fill:#fa004b;" d="M293.277,30.893c-9.379-9.379-24.583-9.379-33.962,0l-3.315,3.316l-3.316-3.316 c-9.379-9.379-24.583-9.379-33.962,0c-9.379,9.379-9.379,24.583,0,33.962l36.24,39.623l34.999-36.307l3.316-3.316 C302.656,55.477,302.656,40.272,293.277,30.893z"/> <g> <path style="fill:#36C9A3;" d="M159.799,488.139L159.799,488.139c-44.209,0-80.048-35.839-80.048-80.048V247.995h160.097v160.097 C239.847,452.301,204.008,488.139,159.799,488.139z"/> <path style="fill:#36C9A3;" d="M352.201,488.139L352.201,488.139c-44.209,0-80.048-35.839-80.048-80.048V247.995H432.25v160.097 C432.249,452.301,396.411,488.139,352.201,488.139z"/> </g> <g> <rect x="79.896" y="272.011" style="fill:#FFFFFF;" width="159.949" height="56.031"/> <rect x="272.221" y="272.011" style="fill:#FFFFFF;" width="159.949" height="56.031"/> </g> <g> <rect x="79.75" y="247.999" style="fill:#fa004b;" width="160.096" height="24.015"/> <rect x="272.147" y="247.999" style="fill:#fa004b;" width="160.096" height="24.015"/> </g> <g> <path style="fill:#FAEDD6;" d="M240.561,287.402h-24.585c-22.105,0-40.024,18.194-40.024,40.299s17.92,40.299,40.024,40.299h24.585 "/> <path style="fill:#FAEDD6;" d="M271.963,287.402h24.061c22.105,0,40.024,18.194,40.024,40.299s-17.92,40.299-40.024,40.299h-24.061 "/> </g> <g> <rect x="152.633" y="264.37" style="fill:#232323;" width="23.028" height="15.701"/> <path style="fill:#232323;" d="M71.9,256.154H39.87c-21.984,0-39.87,17.885-39.87,39.87v48.03 c0,21.983,17.884,39.869,39.869,39.869h23.944c2.187,0,4.24,0.853,5.782,2.402c1.291,1.297,2.084,2.951,2.306,4.736v2.047 c-0.509,4.013-3.945,7.132-8.088,7.132H47.874v15.701h15.938c2.932,0,5.742-0.537,8.341-1.514 c3.262,45.518,41.311,81.561,87.645,81.561c48.467,0,87.898-39.431,87.898-87.898V240.144H71.9V256.154z M63.812,368.222H39.869 c-13.327,0-24.168-10.842-24.168-24.168v-48.03c0-13.327,10.842-24.169,24.169-24.169H71.9v97.796 C69.338,368.729,66.617,368.222,63.812,368.222z M231.996,359.625h-16.02c-17.741,0-32.174-14.321-32.174-31.925 s14.433-31.925,32.174-31.925h16.02L231.996,359.625L231.996,359.625z M87.601,280.075h56.662v-15.701H87.601v-8.528h144.395 v24.228h-16.02c-23.709,0-43.438,17.238-47.212,39.775H87.601V280.075z M168.764,335.551c3.774,22.537,23.503,39.775,47.212,39.775 h16.02v32.765c0,39.81-32.388,72.198-72.198,72.198s-72.198-32.388-72.198-72.198v-14.254c0.04-0.545,0.068-1.094,0.071-1.649 c0.002-0.539-0.039-1.07-0.071-1.603v-55.035L168.764,335.551L168.764,335.551z"/> <path style="fill:#232323;" d="M472.13,256.154H440.1v-16.01H264.302v167.947c0,48.467,39.431,87.898,87.899,87.898 c46.334,0,84.383-36.044,87.645-81.561c2.599,0.976,5.409,1.514,8.341,1.514h15.937v-15.701h-15.937 c-4.142,0-7.578-3.118-8.088-7.129v-2.054c0.222-1.785,1.015-3.437,2.306-4.733c1.543-1.549,3.597-2.402,5.782-2.402h23.944 c21.983,0,39.868-17.884,39.868-39.868v-48.03C512,274.04,494.115,256.154,472.13,256.154z M280.003,295.775h16.021 c17.741,0,32.174,14.321,32.174,31.925s-14.433,31.925-32.174,31.925h-16.021V295.775z M424.399,390.578 c-0.034,0.536-0.074,1.07-0.071,1.611c0.002,0.557,0.031,1.107,0.071,1.655v14.248c0,39.81-32.388,72.198-72.198,72.198l0,0 c-39.81,0-72.198-32.388-72.198-72.198v-32.765h16.021c23.709,0,43.438-17.238,47.212-39.775H424.4v55.027H424.399z M424.399,264.374h-55.091v15.701h55.091v39.775h-81.163c-3.774-22.537-23.503-39.775-47.212-39.775h-16.021v-24.228h144.396 V264.374z M496.299,344.054c0,13.326-10.842,24.168-24.168,24.168h-23.944c-2.805,0-5.526,0.508-8.088,1.429v-97.796h32.031 c13.327,0,24.169,10.842,24.169,24.169L496.299,344.054L496.299,344.054z"/> <rect x="335.809" y="264.37" style="fill:#232323;" width="24.075" height="15.701"/> <path style="fill:#232323;" d="M254.811,115.945l-41.773-45.67c-5.935-6.003-9.202-13.951-9.202-22.399 c0-8.511,3.315-16.513,9.334-22.532c6.019-6.019,14.021-9.334,22.532-9.334c7.497,0,14.599,2.572,20.298,7.298 c12.506-10.349,31.124-9.669,42.828,2.036c6.019,6.019,9.334,14.021,9.334,22.532s-3.315,16.513-9.334,22.532l-3.265,3.265 L254.811,115.945z M235.704,31.71c-4.318,0-8.376,1.681-11.429,4.734c-6.302,6.302-6.302,16.557,0,22.859l0.242,0.252 l30.597,33.453l29.298-30.389l3.316-3.316c6.302-6.302,6.302-16.557,0-22.859s-16.557-6.302-22.86,0l-8.866,8.868l-8.868-8.868 C244.079,33.391,240.02,31.71,235.704,31.71z"/> <path style="fill:#232323;" d="M223.826,207.97h-15.701v-60.036c0-6.706-5.456-12.162-12.162-12.162 c-15.364,0-27.863-12.499-27.863-27.863V71.889h15.701v36.022c0,6.706,5.456,12.162,12.162,12.162 c15.364,0,27.863,12.499,27.863,27.863V207.97z"/> <rect x="144.259" y="128.296" style="fill:#232323;" width="15.701" height="62.803"/> <rect x="176.707" y="160.744" style="fill:#232323;" width="15.701" height="55.476"/> <rect x="144.259" y="207.847" style="fill:#232323;" width="15.701" height="23.028"/> <rect x="111.811" y="168.071" style="fill:#232323;" width="15.701" height="48.149"/> <path style="fill:#232323;" d="M303.874,207.97h-15.701v-60.036c0-15.364,12.499-27.863,27.863-27.863 c6.706,0,12.162-5.456,12.162-12.162V71.889h15.701v36.022c0,15.364-12.499,27.863-27.863,27.863 c-6.706,0-12.162,5.456-12.162,12.162V207.97z"/> <rect x="352.556" y="128.296" style="fill:#232323;" width="15.701" height="62.803"/> <rect x="320.108" y="160.744" style="fill:#232323;" width="15.701" height="55.476"/> <rect x="352.556" y="207.847" style="fill:#232323;" width="15.701" height="23.028"/> <rect x="383.958" y="168.071" style="fill:#232323;" width="15.701" height="48.149"/> </g> </g>
</svg>