<!DOCTYPE svg PUBLIC "-//W3C//DTD SVG 1.1//EN" "http://www.w3.org/Graphics/SVG/1.1/DTD/svg11.dtd">
<!-- Uploaded to: SVG Repo, www.svgrepo.com, Transformed by: SVG Repo Mixer Tools -->
<svg version="1.1" id="Layer_1" xmlns="http://www.w3.org/2000/svg" xmlns:xlink="http://www.w3.org/1999/xlink" viewBox="0 0 512 512" xml:space="preserve" width="800px" height="800px" fill="#000000">
<g id="SVGRepo_bgCarrier" stroke-width="0"/>
<g id="SVGRepo_tracerCarrier" stroke-linecap="round" stroke-linejoin="round"/>
<g id="SVGRepo_iconCarrier"> <g> <polyline style="fill:#FAEDD6;" points="119.661,415.214 119.661,503.584 144.909,503.584 144.909,415.214 "/> <polyline style="fill:#FAEDD6;" points="366.887,415.214 366.887,503.584 392.135,503.584 392.135,415.214 "/> </g> <g> <path style="fill:#36C9A3;" d="M312.181,183.585l-0.137-0.005c0,8.822,7.015,15.969,15.836,15.969h71.882 c8.822,0,15.746-7.146,15.746-15.969l-0.228,0.005v-7.18H312.181V183.585z"/> <path style="fill:#36C9A3;" d="M199.615,183.768v-7.364H97.568v7.18l-0.652-0.005c0,8.822,6.499,15.969,15.321,15.969h71.882 c8.822,0,15.496-7.146,15.496-15.969"/> <polyline style="fill:#36C9A3;" points="240.644,223.745 240.644,135.375 271.152,135.375 271.152,223.745 "/> </g> <rect x="240.03" y="135.659" style="fill:#FFFFFF;" width="31.947" height="23.961"/> <path style="fill:#fa004b;" d="M295.533,14.893c-9.357-9.357-24.528-9.357-33.886,0L256,20.54l-5.647-5.647 c-9.357-9.357-24.528-9.357-33.886,0s-9.357,24.528,0,33.886l6.327,6.327L256,88.312l0,0l39.533-39.533 C304.89,39.421,304.89,24.249,295.533,14.893z"/> <g> <path style="fill:#FAEDD6;" d="M192.105,143.65L192.105,143.65c-8.822,0-15.974-7.152-15.974-15.974v-23.96h31.947v23.961 C208.079,136.499,200.928,143.65,192.105,143.65z"/> <path style="fill:#FAEDD6;" d="M319.895,143.65L319.895,143.65c-8.822,0-15.974-7.152-15.974-15.974v-23.96h31.947v23.961 C335.869,136.499,328.717,143.65,319.895,143.65z"/> </g> <rect x="72.306" y="223.524" style="fill:#fa004b;" width="367.399" height="191.679"/> <g> <polygon style="fill:#232323;" points="152.274,512 112.297,512 112.297,429.942 128.077,429.942 128.077,496.22 136.493,496.22 136.493,429.942 152.274,429.942 "/> <polygon style="fill:#232323;" points="399.5,512 359.523,512 359.523,429.942 375.303,429.942 375.303,496.22 383.719,496.22 383.719,429.942 399.5,429.942 "/> <path style="fill:#232323;" d="M399.763,207.965h-71.882c-12.564,0-22.904-9.763-23.91-22.141l-0.206-0.423v-17.413h119.931 l-0.042,16.436C423.348,197.457,412.749,207.965,399.763,207.965z M319.546,183.768v0.075c0,4.522,3.885,8.342,8.335,8.342h71.882 c4.401,0,8.153-3.82,8.153-8.342v-0.075H319.546z"/> <path style="fill:#232323;" d="M89.152,167.988v11.368v0.259v4.229c0,13.301,10.142,24.122,23.085,24.122h71.882 c13.159,0,23.864-10.52,23.864-24.197h0.048v-15.78H89.152V167.988z M192.251,183.843c0,4.522-3.75,8.342-8.132,8.342h-71.882 c-3.447,0-6.298-2.341-7.304-5.666v-2.75h87.318V183.843z"/> <path style="fill:#232323;" d="M168.242,127.677c0,10.252,6.499,19.013,15.593,22.384v9.51h15.78v-9.248 c9.489-3.155,16.354-12.111,16.354-22.646V95.826h-47.727V127.677z M184.023,111.607h16.166v16.07c0,4.456-3.626,8.084-8.084,8.084 c-4.457,0-8.084-3.626-8.084-8.084v-16.07H184.023z"/> <path style="fill:#232323;" d="M296.031,95.826v31.85c0,10.459,6.767,19.363,16.151,22.578v9.317h15.78v-9.438 c9.2-3.315,15.796-12.129,15.796-22.458V95.826H296.031z M327.979,127.677c0,4.456-3.626,8.084-8.084,8.084 s-8.084-3.626-8.084-8.084v-16.07h16.167v16.07H327.979z"/> <path style="fill:#232323;" d="M279.569,215.628v-87.617h-15.78V91.68l37.324-37.324c6.015-6.017,9.329-14.014,9.329-22.522 s-3.313-16.505-9.329-22.522c-12.418-12.417-32.624-12.417-45.044,0L256,9.381l-0.068-0.068c-12.419-12.417-32.624-12.417-45.044,0 c-6.015,6.017-9.329,14.014-9.329,22.522s3.313,16.505,9.329,22.522l37.12,37.12v36.535h-15.78v87.617H64.413v207.465h383.175 V215.628H279.569z M222.047,20.472c3.133-3.134,7.248-4.7,11.364-4.7c4.116,0,8.23,1.566,11.363,4.7L256,31.698l11.226-11.226 c6.267-6.267,16.461-6.266,22.727,0c6.266,6.265,6.266,16.46,0,22.726L256,77.152l-33.953-33.954 C215.781,36.933,215.781,26.738,222.047,20.472z M263.788,143.791v7.364h-15.78v-7.364H263.788z M248.008,166.936h15.78v48.692 h-15.78V166.936z M431.807,407.312h-16.526v-40.491h-15.78v40.491h-15.78v-16.295h-15.78v16.295h-16.832v-8.931h-15.78v8.931 H176.471v-8.931h-15.78v8.931h-16.832v-16.295h-15.78v16.295H113.35v-40.491h-15.78v40.491H80.193V231.408h351.614V407.312z"/> </g> </g>
</svg>