<!DOCTYPE svg PUBLIC "-//W3C//DTD SVG 1.1//EN" "http://www.w3.org/Graphics/SVG/1.1/DTD/svg11.dtd">
<!-- Uploaded to: SVG Repo, www.svgrepo.com, Transformed by: SVG Repo Mixer Tools -->
<svg width="256px" height="256px" viewBox="-130.42 -130.42 656.04 656.04" xmlns="http://www.w3.org/2000/svg" fill="#000000">
<g id="SVGRepo_bgCarrier" stroke-width="0">
<path transform="translate(-130.42, -130.42), scale(20.50125)" d="M16,28.237148483283818C18.32115880438485,28.45655732348463,20.793468498977738,28.96005755258663,22.866760997101665,27.89357893041241C24.961499425810132,26.816068759857174,26.120822424894854,24.56072789770047,27.20885735850481,22.47143681324087C28.26316527020877,20.446909794710468,28.862495713935648,18.273994083121703,29.060550583526492,16C29.272034076161685,13.571823344087207,29.860991709910188,10.791097572801863,28.39581017434376,8.843275659019131C26.92120166869253,6.882921469565409,23.77237572459604,7.443084729242506,21.67141050193459,6.1768288600695875C19.512603203088375,4.875711457890743,18.509548313574406,1.6079290761990301,16.000000000000004,1.3722965028136969C13.530640844885992,1.1404374669924686,11.853232857643654,3.858356162339951,9.6784515993204,5.050756987517147C7.445075104850642,6.275284725534492,4.563404578391763,6.482695262245736,3.0049396801993087,8.497298426227637C1.4041735027652298,10.566583791329046,0.7575239355927992,13.422946899352027,1.2082917178049684,15.999999999999996C1.6416478127425835,18.47750995570935,3.805916866210545,20.171829378231582,5.388876084445975,22.126335249049582C6.745871599026042,23.801840005815826,7.975533653219439,25.586592597637857,9.843950531212608,26.662590453847148C11.711231889510882,27.737934378499848,13.85477620895231,28.034369999073338,16,28.237148483283818" fill="#558b2f" strokewidth="0"/>
</g>
<g id="SVGRepo_tracerCarrier" stroke-linecap="round" stroke-linejoin="round"/>
<g id="SVGRepo_iconCarrier"> <defs> <style>.cls-1{fill:#ffffff;}</style> </defs> <title/> <g data-name="Capa 2" id="Capa_2"> <g id="Outline"> <g id="FriedEgg"> <path class="cls-1" d="M164.56,131.58a75.78,75.78,0,1,0,75.79,75.78A75.87,75.87,0,0,0,164.56,131.58Zm0,134.56a58.78,58.78,0,1,1,58.79-58.78A58.85,58.85,0,0,1,164.56,266.14Z"/> <path class="cls-1" d="M382,156.34C382,70.14,311.85,0,225.65,0A156.53,156.53,0,0,0,98.44,65.44,169.05,169.05,0,0,0,0,219c0,93.12,75.75,168.87,168.87,168.87a169.58,169.58,0,0,0,41.53-5.15,106.54,106.54,0,0,0,146-140.53A155.25,155.25,0,0,0,382,156.34ZM260.51,378.2a89.47,89.47,0,0,1-44.72-12,8.45,8.45,0,0,0-4.26-1.14,8.64,8.64,0,0,0-2.25.3,152.36,152.36,0,0,1-40.41,5.44C85.13,370.82,17,302.7,17,219A152,152,0,0,1,107.49,80,8.54,8.54,0,0,0,111,77.07,139.53,139.53,0,0,1,225.65,17C302.48,17,365,79.51,365,156.34a138.41,138.41,0,0,1-25.45,80.29,8.51,8.51,0,0,0-.5,9A89.55,89.55,0,0,1,260.51,378.2Z"/> <path class="cls-1" d="M158.32,248.65A41.81,41.81,0,0,1,124.48,219a3.5,3.5,0,0,0-6.73,1.95,48.86,48.86,0,0,0,39.53,34.6,4.73,4.73,0,0,0,.53,0,3.5,3.5,0,0,0,.51-7Z"/> </g> </g> </g> </g>
</svg>