<!DOCTYPE svg PUBLIC "-//W3C//DTD SVG 1.1//EN" "http://www.w3.org/Graphics/SVG/1.1/DTD/svg11.dtd">
<!-- Uploaded to: SVG Repo, www.svgrepo.com, Transformed by: SVG Repo Mixer Tools -->
<svg width="256px" height="256px" viewBox="-156.69 -156.69 788.20 788.20" xmlns="http://www.w3.org/2000/svg" fill="#000000">
<g id="SVGRepo_bgCarrier" stroke-width="0">
<path transform="translate(-156.69, -156.69), scale(24.63125)" d="M16,26.46095299720764C18.18795014909509,26.215973271362934,20.03013611955318,29.39942217023944,22.1214991984323,28.71142406464508C24.102518980499795,28.059725719689183,23.958251721007397,25.013495335055495,25.286700487530858,23.405896509327107C26.644113462275634,21.763247158280684,29.857014954484896,21.319483891138233,29.98747667029121,19.192550273178433C30.12848331663001,16.893701338069995,26.89508861568468,15.812173243215808,25.879272536804784,13.745120511752486C25.14177060691917,12.244400637038067,25.79176670195358,10.313081094851968,24.92199082418426,8.88494974186007C24.028651139695206,7.418127719199803,22.242196455236154,6.834651142415697,20.968753327018277,5.682277402156567C19.22715468378922,4.106256849643351,18.347563905413583,0.8883330096388056,16.000000000000004,0.8111946531571448C13.689306696616168,0.7352678239257133,12.916894200697916,4.272857070251291,10.871467115412807,5.350491732129845C8.92535777289671,6.37580077315523,6.211443731241354,5.4344119089738125,4.530899919844369,6.853697891646835C2.8647850838535316,8.260798031618588,2.5076924628832953,10.68363304322336,2.035614499486641,12.812720135639395C1.5652400491920895,14.934124328113752,1.2456631953503488,17.13950949439069,1.7834388695831294,19.2448373062863C2.31660344822532,21.332113227300034,3.8666233162934005,22.928892472892002,5.075179071761614,24.712253968575673C6.367054388176882,26.618562954400318,6.906854647792482,29.79640226272105,9.180723868658319,30.160372795866017C11.766671781508332,30.574296706655726,13.397397201973748,26.7523604226496,16,26.46095299720764" fill="#558b2f" strokewidth="0"/>
</g>
<g id="SVGRepo_tracerCarrier" stroke-linecap="round" stroke-linejoin="round"/>
<g id="SVGRepo_iconCarrier"> <defs> <style>.cls-1{fill:#ffffff;}</style> </defs> <title/> <g data-name="Capa 2" id="Capa_2"> <g id="Outline"> <g id="Pizza"> <path class="cls-1" d="M1.07,88.52,133.38,326.94l16.43,29.59v0L213,470.44a8.49,8.49,0,0,0,14.86,0l212-381.92a8.49,8.49,0,0,0-2.36-10.94c-1.06-.79-26.6-19.68-66.12-38.78C334.79,21.1,278.89,0,220.47,0c-32.24,0-84.6,6.73-150.92,38.8C30,57.9,4.49,76.79,3.43,77.58A8.49,8.49,0,0,0,1.07,88.52ZM170,357.79a56.8,56.8,0,1,0-54.54-98.28L47.81,137.7C87,114.23,152.22,75.35,220.47,75.35s133.47,38.88,172.66,62.35L220.46,448.8Zm-26.63-48-19.54-35.22a39.81,39.81,0,1,1,37.8,68.12ZM19.65,87c23.28-15.76,110-70,200.82-70S398,71.2,421.29,87l-19.9,35.86C360.63,98.42,293.12,58.35,220.47,58.35S80.31,98.42,39.55,122.83Z"/> <path class="cls-1" d="M212,187.58a63.86,63.86,0,1,0,63.86-63.86A63.93,63.93,0,0,0,212,187.58Zm17,0a46.86,46.86,0,1,1,46.86,46.85A46.91,46.91,0,0,1,229,187.58Z"/> <path class="cls-1" d="M158.39,177.58a36.31,36.31,0,1,0-36.3,36.3A36.35,36.35,0,0,0,158.39,177.58Zm-17,0a19.31,19.31,0,1,1-19.3-19.31A19.32,19.32,0,0,1,141.39,177.58Z"/> <path class="cls-1" d="M271.74,306a8.5,8.5,0,1,1-5.13,16.21,23,23,0,0,0-28.81,14.95,8.5,8.5,0,0,1-16.21-5.14A40,40,0,0,1,271.74,306Z"/> <path class="cls-1" d="M287.67,151.57a3.5,3.5,0,0,1-2.11,6.68,30.67,30.67,0,0,0-38.47,19.95,3.5,3.5,0,0,1-6.68-2.11A37.69,37.69,0,0,1,287.67,151.57Z"/> <path class="cls-1" d="M159.5,272.91A35,35,0,0,1,178,318.76a3.5,3.5,0,0,1-3.22,2.13,3.5,3.5,0,0,1-3.22-4.87,28,28,0,0,0-14.77-36.67,3.5,3.5,0,1,1,2.74-6.44Z"/> <path class="cls-1" d="M177,158.27a8.28,8.28,0,0,1-2.39-.35,8.49,8.49,0,0,1-5.77-10.54A15.93,15.93,0,0,0,158,127.66a8.5,8.5,0,1,1,4.76-16.32,32.93,32.93,0,0,1,22.36,40.81A8.5,8.5,0,0,1,177,158.27Z"/> </g> </g> </g> </g>
</svg>